<svg xmlns="http://www.w3.org/2000/svg" viewBox="0 0 32 32">
  <!-- Barra superior del ancla -->
  <rect x="10" y="4" width="12" height="2" rx="1" fill="#1e40af"/>

  <!-- Asta vertical del ancla -->
  <rect x="15" y="6" width="2" height="16" fill="#1e40af"/>

  <!-- Anillo del ancla -->
  <circle cx="16" cy="10" r="2.5" stroke="#1e40af" stroke-width="1.5" fill="none"/>

  <!-- Brazo izquierdo del ancla -->
  <path d="M16 22 C12 22, 8 24, 8 28 L8 29 C8 29.5, 8.5 30, 9 30 C9.5 30, 10 29.5, 10 29 L10 28 C10 25.5, 12.5 24, 16 24" stroke="#1e40af" stroke-width="2" fill="none" stroke-linecap="round"/>

  <!-- Brazo derecho del ancla -->
  <path d="M16 22 C20 22, 24 24, 24 28 L24 29 C24 29.5, 23.5 30, 23 30 C22.5 30, 22 29.5, 22 29 L22 28 C22 25.5, 19.5 24, 16 24" stroke="#1e40af" stroke-width="2" fill="none" stroke-linecap="round"/>

  <!-- Garfio izquierdo -->
  <path d="M8 28 L6 30" stroke="#1e40af" stroke-width="1.5" stroke-linecap="round"/>
  <path d="M8 28 L6 26" stroke="#1e40af" stroke-width="1.5" stroke-linecap="round"/>

  <!-- Garfio derecho -->
  <path d="M24 28 L26 30" stroke="#1e40af" stroke-width="1.5" stroke-linecap="round"/>
  <path d="M24 28 L26 26" stroke="#1e40af" stroke-width="1.5" stroke-linecap="round"/>
</svg>
